<?xml version="1.0" encoding="utf-8" ?>
<svg xmlns="http://www.w3.org/2000/svg" xmlns:xlink="http://www.w3.org/1999/xlink" viewBox="0 0 512 512" aria-labelledby="title"><!--width="96" height="96"-->
<title id="title" lang="en">Tower Defense Game - Dorian Bayart</title>
<style>
#background {
	fill: black;
	fill-opacity: .1;
	stroke: lightseagreen;
	stroke-width: 16;
	stroke-opacity: .65;
}
#tower {
	fill: ghostwhite;
	stroke: salmon;
	stroke-width: 8;
}

@media (prefers-color-scheme: dark) {
	/* dark theme styles */
	#background {
		fill: ghoswhite;
	}
	#tower {
		fill: salmon;
		stroke: ghostwhite;
		stroke-width: 4;
	}
}
</style>
<rect id="background" x="40" y="40" rx="80" ry="80" width="432" height="432" />
<path id="tower" d="M255.073 11.0737C259.881 10.6639 269.659 17.1959 273.937 19.375L305.264 35.6863C316.191 41.5395 327.619 46.667 337.764 53.8297C339.8 55.2676 339.221 57.1898 339.228 59.3863L339.131 176.511C341.831 178.002 345.716 179.51 348.75 181.025L503.795 257.575C505.796 258.597 508.341 259.872 509.845 261.551C510.354 266.298 509.965 271.465 509.967 276.251L509.963 375.291C509.961 377.079 510.279 379.692 509.779 381.388C503.27 386.064 495.955 388.79 488.785 392.249L354.442 459.47L276.733 498.813C270.37 502.164 263.849 505.789 257.141 508.401L255.5 508.499C254.511 508.488 253.452 507.841 252.57 507.424L10.7061 386.027C0.0245682 380.353 2.04893 381.07 2.04009 369.66L2.02998 282.235C2.03108 279.728 1.61653 262.961 2.27083 261.671C2.9826 260.269 6.88886 258.407 8.32168 257.633L161.329 182.649L169.975 177.843C173.413 175.929 173 177.087 172.999 172.926L172.974 66.8831C172.972 63.3562 172.758 59.7076 172.947 56.1913C173.216 51.1887 189.496 44.939 193.438 42.9018L237.422 19.9096C243.168 16.7894 248.867 13.1816 255.073 11.0737ZM494.286 276.625L409.312 319.213L385 332.019L266.484 392.564C261.78 395.104 263.644 395.6 263.678 401.605L263.769 487.578L308.794 465.654L490.697 374.158C491.905 373.55 493.263 373.347 494.296 372.449L494.303 283.524C494.31 281.47 494.696 278.599 494.286 276.625ZM17.809 276.2L17.7948 363.629C17.7942 366.572 17.4716 369.928 17.9064 372.827L248.415 487.631L248.321 397.062C248.291 396.056 248.505 393.948 248.073 393.077C231.122 385.972 215.103 376.599 198.689 368.325L24.2426 279.672C22.131 278.507 20.096 277.185 17.809 276.2ZM339.192 261.612L339.173 282.589C339.166 286.376 339.569 290.76 338.773 294.455C333.842 299.019 327.29 301.402 321.403 304.468L263.614 333.838C261.044 335.078 258.02 336.871 255.166 337.223C250.156 335.55 245.381 332.748 240.701 330.319L178.231 298.523C171.637 294.824 173.053 291.819 173.038 284.737L173.047 268.391C173.055 266.31 173.29 264.117 173.172 262.055L172.845 262.261C172.476 262.49 172.098 262.655 171.7 262.827L97.1477 299.151L151.069 326.625L256.173 379.839C261.298 378.08 266.211 375.025 270.991 372.474L397.893 308.025C403.406 305.066 408.911 301.805 414.753 299.526L339.192 261.612ZM324.043 76.1199C321.668 77.8091 319.114 79.0534 316.552 80.4197L272.931 103.926L263.658 108.224L263.667 307.635C263.665 308.776 263.446 316.627 263.677 316.875L320.59 287.253C321.729 286.658 322.855 286.388 323.937 285.619L324.043 76.1199ZM188.368 75.7919L188.215 286.244C191.067 287.839 194.26 289.06 197.209 290.546L212.22 298.225C224.128 304.334 236.502 309.925 248.184 316.625C248.54 315.789 248.396 314.699 248.398 313.803L248.398 125.529C248.393 119.69 248.643 113.712 248.322 107.891C246.939 107.158 245.451 106.807 244.061 106.095L218.463 92.3172C208.415 87.0285 197.978 81.975 188.368 75.7919ZM339.176 193.459L339.07 245.062L420.765 285.532C428.518 289.24 429.711 292.216 436.599 288.615L465.692 273.834L483.355 264.889C478.62 263.411 474.186 260.955 469.75 258.751L347.141 197.645C344.589 196.326 341.741 194.25 339.176 193.459ZM172.582 194.125L28.2678 264.985L46.6849 273.643L80.3426 290.354L87.8628 287.103L170.336 245.629C171.37 245.081 172.169 244.985 173.04 244.113L172.582 194.125ZM255.554 27.625L255.364 27.7578C252.833 29.4939 249.978 30.8201 247.25 32.2181L209.062 52.1749C203.731 54.9582 198.173 58.0508 192.533 60.1359C196.884 63.4811 202.188 66.0564 207 68.6979L235.313 83.5458C242.178 87.0541 249.499 90.4748 255.875 94.8064C256.147 94.6906 256.361 94.597 256.604 94.4243L317.612 62.3287C318.233 62.0285 319.652 61.5355 320.03 61.01L319.621 60.853C316.252 59.5316 313.065 57.6359 309.909 55.88L268 33.6117C265.715 32.4391 257.643 27.0779 255.554 27.625Z"/>
</svg>
