<?xml version="1.0" encoding="utf-8" ?>
<svg xmlns="http://www.w3.org/2000/svg" xmlns:xlink="http://www.w3.org/1999/xlink" width="256" height="256">
	<path fill="#0A459A" transform="scale(0.5 0.5)" d="M173.048 133.648L172.871 133.584C165.125 131.288 167.39 114.929 167.39 108.606L167.353 68.4407C167.331 66.3646 166.948 63.5672 167.496 61.5856C168.125 59.3138 178.887 54.633 181 53.5378L252.75 14.0409C253.859 13.4935 255.696 12.3342 256.852 12.7334C262.333 14.6248 267.265 17.9136 272.291 20.7638L340.245 58.0207C341.616 58.8499 342.987 59.7351 343.988 61L344.246 61.3172C346.05 63.598 345.192 67.6125 345.177 70.3512L345.121 172.78C345.117 177.248 344.902 175.702 348.632 177.812L495.572 257.594C496.845 258.343 498.919 259.452 499.746 260.692C500.854 262.354 500.283 283.106 500.286 286.408L500.294 307.117C500.295 314.9 502.128 316.794 494.928 321.459L495.537 344.199C496.971 344.608 498.395 345.419 499.745 345.969C500.559 349.416 500.685 359.344 499.532 362.656C497.359 364.93 494.52 366.406 491.806 367.936L388.908 423.651L271.993 488.789C253.412 499.377 259.998 500.208 242.25 489.763L134.458 429.594L24.6664 369.054C19.9323 366.506 12.8744 364.394 12.2497 358.181C11.7132 352.847 12.0396 347.249 12.0375 341.878L11.9496 263.322C11.8954 260.346 11.4825 260.607 14.1649 258.905C20.546 254.855 27.4214 251.614 34.101 248.095L139 192.207C147.455 187.623 155.792 183.258 163.843 177.956C166.615 176.13 166.83 176.677 166.841 173.345L166.849 161.339C166.837 155.422 167.063 153.861 173.235 151.443C172.61 145.651 172.83 139.466 173.048 133.648Z"/>
	<path fill="#E75774" transform="scale(0.5 0.5)" d="M256.052 29.0062C261.201 31.1676 266.082 33.7902 271.016 36.3939L327.395 67.5264C319.842 72.8928 311.077 76.9247 302.934 81.3302L256.854 106.894L185.204 67.8937L256.052 29.0062Z"/>
	<path fill="#47B89C" transform="scale(0.5 0.5)" d="M167.511 192.656L168.064 337.892C167.305 336.993 166.46 336.67 165.496 336.027L83.142 289.885L53.8168 274.171C47.2161 270.698 40.6482 267.087 33.6104 264.569C34.3783 263.966 35.5444 263.599 36.4311 263.168L101.52 228.891L167.511 192.656Z"/>
	<path fill="#47B89C" transform="scale(0.5 0.5)" d="M344.464 191.546C346.84 192.634 349.565 194.201 352.244 195.554L478.176 263.815C473.922 267.095 468.666 269.428 463.974 272.059L431.071 289.896L344.321 336.065L344.464 191.546Z"/>
	<path fill="#47B89C" transform="scale(0.5 0.5)" d="M175.217 436.136L26.0889 353.308C25.6034 351.035 25.925 348.08 25.929 345.729L26.0152 275.641L169.75 354.001C171.214 354.823 172.763 355.561 174.094 356.588L175.496 357.537C176.324 363.633 176.167 369.638 176.17 375.792L176.144 421.064C176.127 424.722 176.99 433.023 175.217 436.136Z"/>
	<path fill="#47B89C" transform="scale(0.5 0.5)" d="M336.266 365.616C337.417 359.123 334.195 357.871 340.392 354.596L477.491 281.104C478.432 280.573 485.842 276.589 486.244 276.161L486.567 275.802C487.105 284.839 485.364 311.345 487.927 318.148C489.789 319.694 492.149 320.651 494.462 321.328L494.928 321.459L495.537 344.199C494.275 344.307 493.349 344.509 492.125 345.068L491.781 345.219C490.228 345.954 488.236 349.238 487.75 350.875L487.548 351.711C486.605 355.785 470.639 362.757 466.691 364.973L362.909 421.884C354.328 426.68 345.976 432.204 336.945 436.144C336.605 436.292 336.721 436.243 336.33 436.493L336.153 429.118L336.266 365.616Z"/>
	<path fill="#FFD085" transform="scale(0.5 0.5)" d="M336.208 429.118C335.488 431.144 335.821 434.478 335.799 436.667L266.994 475.397C265.621 476.228 264.374 476.579 263.179 477.686L263.201 119.259C265.279 117.729 270.969 115.044 273.67 113.504L326.875 84.6037C328.135 83.9303 329.388 83.6051 330.566 82.7605L330.729 349C330.748 349.973 330.758 351.099 331.224 351.974L331.822 353.035C332.847 354.711 334.36 355.813 336.256 356.268L336.533 356.331C336.04 359.333 336.26 362.573 336.26 365.616L336.208 429.118Z"/>
	<path fill="#BC914C" transform="scale(0.5 0.5)" d="M173.048 133.648C177.526 132.96 180.796 132.886 181.369 127.74C181.833 123.567 181.52 119.06 181.524 114.848C181.535 103.591 181.064 92.1113 181.689 80.8807L181.858 81.096C183.017 82.5212 187.062 84.4884 188.75 85.5152L221.105 103.601C225.07 105.774 248.166 117.921 249.427 120.271L249.371 120.731C248.84 125.31 249.051 130.079 249.042 134.69L248.896 477.288C248.087 476.405 247.237 476.295 246.23 475.753L175.118 436.136C176.99 433.023 176.127 424.722 176.144 421.064L176.17 375.792C176.167 369.638 176.324 363.633 175.496 357.537C181.826 354.949 181.604 350.633 181.563 344.965L181.457 160.48C181.418 158.774 181.525 157.463 180.438 156.049L180.205 155.754C178.291 153.285 176.064 152.44 173.235 151.443C172.61 145.651 172.83 139.466 173.048 133.648Z"/>
</svg>
