<?xml version="1.0" encoding="utf-8" ?>
<svg xmlns="http://www.w3.org/2000/svg" xmlns:xlink="http://www.w3.org/1999/xlink" width="256" height="256">
	<path transform="scale(0.5 0.5)" d="M256.549 341.581C240.752 341.774 228.046 353.789 227.352 369.501L227.226 486.523C225.441 486.784 223.11 486.382 221.262 486.364L156.461 486.311C147.604 486.315 138.545 485.954 129.711 486.511L129.766 368.172C127.825 366.743 124.407 365.757 122.124 364.712L58.0531 336.069C54.4685 334.601 53.9413 335.482 53.9406 331.419L53.9456 140.724C53.9443 133.93 53.5702 126.952 53.9391 120.18C55.7422 121.522 61.8116 124.14 64.4497 125.6L153.563 173.868C157.727 176.057 158.081 174.742 158.058 179.598L157.992 259.632C158.288 259.911 158.458 259.808 158.866 259.809L209.234 259.818C209.235 251.528 209.507 173.139 209.24 172.716C208.732 171.909 206.971 171.585 206.147 171.119L117.9 122.735C114.386 120.832 109.412 118.986 106.646 116.184C107.197 114.059 112.496 111.313 114.186 110.254L147.611 90.3399L255.43 23.375L256.128 23.2365C258.387 24.0515 260.493 25.5789 262.509 26.8607L300.949 51.171L401.869 112.24C403.03 112.929 404.769 113.767 405.546 114.875C407.278 117.347 393.411 123.154 391.328 124.205L336.125 153.832L313.529 167.015C310.098 168.945 306.728 171.058 303.08 172.551L302.882 259.742C304.493 259.987 306.29 259.818 307.93 259.82L353.916 259.885C354.215 256.905 353.994 253.755 353.996 250.749L353.96 177.025C354.167 176.679 354.347 176.472 354.7 176.268L454.375 121.996C455.409 121.446 456.934 121.137 457.761 120.369L458.058 334.122C457.231 335.167 456.23 335.238 455.038 335.757L392.395 363.847C389.108 365.324 385.621 366.627 382.415 368.237L382.373 486.422L284.811 486.626C284.391 484.888 284.699 482.356 284.698 480.539L284.712 375.308C284.712 372.003 285.06 368.244 284.499 365C282.172 351.564 269.745 342.346 256.549 341.581Z"/>
</svg>
