<svg width="64" height="64" viewBox="0 0 24 24" xmlns="http://www.w3.org/2000/svg">
    <path fill="#000000" d="M12 21.5q-2.42 0-3.96-.693Q6.5 20.113 6.5 19q0-.587.504-1.073q.504-.487 1.394-.842l.287.957q-.522.221-.814.467q-.292.245-.36.491q.172.67 1.452 1.085q1.281.415 3.037.415q1.737 0 3.03-.415q1.293-.416 1.464-1.085q-.067-.246-.36-.482q-.292-.235-.813-.476l.306-.957q.89.355 1.382.842q.491.486.491 1.073q0 1.113-1.54 1.807q-1.54.693-3.96.693Zm0-5.137q.45-.882 1.065-1.8q.616-.919 1.264-1.755q.963-1.258 1.542-2.288q.579-1.03.579-2.57q0-1.842-1.304-3.146Q13.842 3.5 12 3.5q-1.842 0-3.146 1.304Q7.55 6.108 7.55 7.95q0 1.54.588 2.57q.589 1.03 1.533 2.288q.648.836 1.264 1.755q.615.918 1.065 1.8Zm0 1.522q-.217 0-.404-.163q-.186-.162-.286-.399q-.652-1.583-1.47-2.658l-1.565-2.06q-.723-.984-1.224-2.043q-.501-1.06-.501-2.612q0-2.288 1.58-3.87Q9.713 2.5 12 2.5q2.288 0 3.87 1.58q1.58 1.582 1.58 3.87q0 1.552-.488 2.612q-.489 1.06-1.237 2.044q-.723.984-1.553 2.06q-.83 1.074-1.482 2.657q-.1.237-.286.4q-.187.162-.404.162Zm0-8.406q.644 0 1.087-.442q.442-.443.442-1.087q0-.644-.442-1.087q-.443-.442-1.087-.442q-.644 0-1.087.442q-.442.443-.442 1.087q0 .644.442 1.087q.443.442 1.087.442Zm0-1.529Z"/>
</svg>